<svg width="28" height="28" viewBox="0 0 28 28" fill="none" xmlns="http://www.w3.org/2000/svg">
<g clip-path="url(#clip0)">
<path d="M14 28C6.28031 28 0 21.7197 0 14C0 6.28028 6.28062 0 14 0C21.7194 0 28.0001 6.28028 28.0001 14C28.0001 21.7197 21.7197 28 14 28ZM14 7.00381C10.1425 7.00381 7.00381 10.1424 7.00381 14C7.00381 17.8576 10.1425 20.9962 14 20.9962C17.8576 20.9962 20.9963 17.8576 20.9963 14C20.9963 10.1424 17.8579 7.00381 14 7.00381Z" fill="white"/>
<path d="M13.9997 2.33545C20.4417 2.33545 25.6643 7.55785 25.6643 14.0001C25.6643 20.4424 20.442 25.6648 13.9997 25.6648C7.55741 25.6648 2.33496 20.4424 2.33496 14.0001C2.33496 7.55785 7.55741 2.33545 13.9997 2.33545Z" fill="#13C8FF"/>
<path d="M19.9209 13.0967H7.92188V14.7749H19.9209V13.0967Z" fill="white"/>
<path d="M14.7603 7.93652H13.082V19.9356H14.7603V7.93652Z" fill="white"/>
</g>
<defs>
<clipPath id="clip0">
<rect width="28" height="28" fill="white"/>
</clipPath>
</defs>
</svg>
