<svg width="12" height="12" viewBox="0 0 12 12" fill="none" xmlns="http://www.w3.org/2000/svg">
<path fill-rule="evenodd" clip-rule="evenodd" d="M8.77424 1.39172L6.00119 4.16259L3.22814 1.38953C3.08204 1.23738 2.90704 1.11592 2.71339 1.03228C2.51974 0.948631 2.31135 0.904483 2.10042 0.90242C1.88949 0.900356 1.68027 0.940419 1.48503 1.02026C1.28978 1.1001 1.11244 1.21811 0.963389 1.36738C0.814342 1.51664 0.696591 1.69416 0.617037 1.88952C0.537483 2.08489 0.497727 2.29416 0.5001 2.50509C0.502473 2.71601 0.546927 2.92434 0.630856 3.11787C0.714784 3.31139 0.8365 3.48621 0.988867 3.63209L3.76083 6.40514L0.991059 9.17491C0.701486 9.4741 0.541082 9.8751 0.544431 10.2915C0.547779 10.7078 0.714611 11.1062 1.00896 11.4007C1.30331 11.6952 1.70159 11.8622 2.11795 11.8657C2.53431 11.8693 2.93538 11.7091 3.23471 11.4197L6.00119 8.64441L8.77205 11.4164C8.91826 11.5682 9.09328 11.6894 9.28688 11.7728C9.48047 11.8563 9.68875 11.9003 9.89955 11.9023C10.1103 11.9043 10.3194 11.8642 10.5146 11.7845C10.7097 11.7047 10.887 11.5869 11.036 11.4378C11.1851 11.2887 11.303 11.1115 11.3827 10.9163C11.4625 10.7212 11.5025 10.5121 11.5005 10.3013C11.4985 10.0905 11.4545 9.88223 11.3711 9.68864C11.2877 9.49505 11.1665 9.32003 11.0146 9.17381L8.24813 6.40624L11.0179 3.63647C11.3075 3.33729 11.4679 2.93629 11.4645 2.51993C11.4612 2.10357 11.2943 1.7052 11 1.41071C10.7057 1.11622 10.3074 0.949193 9.89101 0.945641C9.47465 0.94209 9.07357 1.1023 8.77424 1.39172Z" fill="#444A58"/>
</svg>
