<svg width="20" height="18" viewBox="0 0 20 18" fill="none" xmlns="http://www.w3.org/2000/svg">
<path d="M19.0112 0.75C19.0112 0.551088 18.9322 0.360322 18.7915 0.21967C18.6509 0.0790175 18.4601 0 18.2612 0C18.0623 0 17.8715 0.0790175 17.7309 0.21967C17.5902 0.360322 17.5112 0.551088 17.5112 0.75V4.15C16.3572 2.762 14.8612 1.587 12.9832 1.005C10.6175 0.265859 8.07334 0.333394 5.7502 1.197C3.4342 2.059 1.2462 3.807 0.104202 5.89C0.0530768 5.97657 0.01988 6.07254 0.00658548 6.1722C-0.006709 6.27186 0.000170307 6.37318 0.0268143 6.47013C0.0534584 6.56707 0.0993233 6.65767 0.161682 6.73654C0.224041 6.81541 0.301621 6.88093 0.38981 6.92922C0.477999 6.97751 0.574996 7.00757 0.675035 7.01762C0.775074 7.02767 0.876112 7.0175 0.972143 6.98772C1.06817 6.95794 1.15724 6.90916 1.23404 6.84427C1.31084 6.77938 1.37381 6.69971 1.4192 6.61C2.3632 4.888 4.2442 3.358 6.2732 2.603C8.28583 1.85494 10.49 1.7969 12.5392 2.438C14.2412 2.965 15.6102 4.102 16.6692 5.5H12.7612C12.5623 5.5 12.3715 5.57902 12.2309 5.71967C12.0902 5.86032 12.0112 6.05109 12.0112 6.25C12.0112 6.44891 12.0902 6.63968 12.2309 6.78033C12.3715 6.92098 12.5623 7 12.7612 7H18.2612C18.4601 7 18.6509 6.92098 18.7915 6.78033C18.9322 6.63968 19.0112 6.44891 19.0112 6.25V0.75ZM5.5112 11C5.37859 11 5.25142 11.0527 5.15765 11.1464C5.06388 11.2402 5.0112 11.3674 5.0112 11.5V15.5C5.0112 15.6326 5.06388 15.7598 5.15765 15.8536C5.25142 15.9473 5.37859 16 5.5112 16H13.5112C13.6438 16 13.771 15.9473 13.8648 15.8536C13.9585 15.7598 14.0112 15.6326 14.0112 15.5V11.5C14.0112 11.3674 13.9585 11.2402 13.8648 11.1464C13.771 11.0527 13.6438 11 13.5112 11H5.5112ZM3.5112 11.5C3.5112 10.9696 3.72192 10.4609 4.09699 10.0858C4.47206 9.71071 4.98077 9.5 5.5112 9.5H13.5112C14.0416 9.5 14.5503 9.71071 14.9254 10.0858C15.3005 10.4609 15.5112 10.9696 15.5112 11.5V15.5C15.5112 16.0304 15.3005 16.5391 14.9254 16.9142C14.5503 17.2893 14.0416 17.5 13.5112 17.5H5.5112C4.98077 17.5 4.47206 17.2893 4.09699 16.9142C3.72192 16.5391 3.5112 16.0304 3.5112 15.5V11.5Z" fill="#3B3E51"/>
</svg>
