<svg width="17" height="12" viewBox="0 0 17 12" fill="none" xmlns="http://www.w3.org/2000/svg">
<path d="M15.1263 2.01399e-07H5.93511C5.64395 -0.000134742 5.35676 0.0675445 5.09629 0.197675C4.83583 0.327805 4.60926 0.51681 4.43453 0.749711L1.00927 5.32445C0.863157 5.51937 0.78418 5.7564 0.78418 6C0.78418 6.2436 0.863157 6.48063 1.00927 6.67555L4.44032 11.2503C4.61505 11.4832 4.84163 11.6722 5.10209 11.8023C5.36255 11.9325 5.64974 12.0001 5.9409 12H15.1321C15.628 11.9979 16.103 11.7994 16.453 11.4481C16.803 11.0967 16.9997 10.6211 17 10.1251V1.87486C16.9997 1.37791 16.8022 0.901385 16.4509 0.549881C16.0996 0.198377 15.6232 0.000614002 15.1263 2.01399e-07ZM12.146 4.75087L10.898 6L12.146 7.24797C12.2326 7.32885 12.302 7.42632 12.3502 7.5346C12.3983 7.64288 12.4242 7.75973 12.4262 7.87821C12.4282 7.99669 12.4064 8.11436 12.362 8.22422C12.3176 8.33408 12.2515 8.43388 12.1677 8.51767C12.0839 8.60146 11.9841 8.66752 11.8743 8.71193C11.7644 8.75634 11.6467 8.77818 11.5283 8.77615C11.4098 8.77413 11.2929 8.74827 11.1847 8.70013C11.0764 8.65199 10.9789 8.58255 10.898 8.49594L9.65005 7.24797L8.40208 8.49594C8.32014 8.57812 8.22281 8.64334 8.11566 8.6879C8.00851 8.73246 7.89363 8.75548 7.77759 8.75564C7.66154 8.7558 7.5466 8.7331 7.43932 8.68884C7.33205 8.64458 7.23454 8.57963 7.15237 8.49768C7.0702 8.41574 7.00497 8.31841 6.96041 8.21126C6.91586 8.10411 6.89284 7.98923 6.89268 7.87319C6.89252 7.75714 6.91521 7.6422 6.95947 7.53492C7.00373 7.42765 7.06869 7.33014 7.15063 7.24797L8.40208 6L7.15063 4.75203C6.98514 4.58592 6.89241 4.36088 6.89285 4.1264C6.89328 3.89193 6.98684 3.66723 7.15295 3.50174C7.31906 3.33625 7.5441 3.24352 7.77857 3.24395C8.01305 3.24439 8.23775 3.33795 8.40324 3.50406L9.65005 4.75203L10.898 3.50406C10.9789 3.41745 11.0764 3.34801 11.1847 3.29987C11.2929 3.25173 11.4098 3.22587 11.5283 3.22385C11.6467 3.22182 11.7644 3.24366 11.8743 3.28807C11.9841 3.33248 12.0839 3.39854 12.1677 3.48233C12.2515 3.56612 12.3176 3.66592 12.362 3.77578C12.4064 3.88564 12.4282 4.00331 12.4262 4.12179C12.4242 4.24027 12.3983 4.35712 12.3502 4.4654C12.302 4.57368 12.2326 4.67 12.146 4.75087Z" fill="#FF0000" fill-opacity="0.5"/>
</svg>
