<svg width="14" height="11" viewBox="0 0 14 11" fill="none" xmlns="http://www.w3.org/2000/svg">
<path d="M3.97554 9.86771L0.502538 6.39371C0.343223 6.23453 0.216839 6.04552 0.130611 5.83747C0.0443826 5.62942 0 5.40642 0 5.18121C0 4.956 0.0443826 4.733 0.130611 4.52495C0.216839 4.3169 0.343223 4.12789 0.502538 3.96871C0.824278 3.64745 1.26037 3.467 1.71504 3.467C2.16971 3.467 2.6058 3.64745 2.92754 3.96871L5.10254 6.14171C5.14638 6.18531 5.2057 6.20979 5.26754 6.20979C5.32937 6.20979 5.38869 6.18531 5.43254 6.14171L11.0725 0.50171C11.3943 0.180445 11.8304 0 12.285 0C12.7397 0 13.1758 0.180445 13.4975 0.50171C13.6569 0.660889 13.7832 0.849904 13.8695 1.05795C13.9557 1.266 14.0001 1.489 14.0001 1.71421C14.0001 1.93942 13.9557 2.16242 13.8695 2.37047C13.7832 2.57852 13.6569 2.76753 13.4975 2.92671L6.55754 9.86771C6.21511 10.21 5.75074 10.4024 5.26654 10.4024C4.78234 10.4024 4.31797 10.21 3.97554 9.86771Z" fill="#39B54A"/>
</svg>
